<svg width="1253" height="472" viewBox="0 0 1253 472" fill="none" xmlns="http://www.w3.org/2000/svg">
<circle cx="148.5" cy="148.5" r="146.5" fill="#5D4138" stroke="#CDB0B0" stroke-width="4"/>
<path d="M152.939 243.07L147.841 241.38C147.841 241.38 148.52 215.585 139.186 213.772C133.077 206.658 140.089 -89.9399 162.422 212.761C158.185 214.91 154.943 218.615 153.373 223.099C152.532 229.723 152.387 236.417 152.939 243.07Z" fill="url(#paint0_linear_10_120)"/>
<path d="M155.695 218.151C169.269 207.933 179.664 194.073 185.672 178.181C191.68 162.289 193.055 145.019 189.636 128.377C179.658 84.3549 156.028 69.8824 153.482 64.3568C151.286 60.916 149.411 57.2803 147.882 53.4956L149.762 176.152C149.762 176.152 145.866 213.637 155.695 218.151Z" fill="url(#paint1_linear_10_120)"/>
<path d="M145.248 219.78C145.248 219.78 103.697 191.48 106.1 141.417C106.325 126.324 109.785 111.455 116.248 97.8147C122.711 84.1741 132.027 72.0793 143.565 62.3474C144.913 61.2019 145.984 59.7657 146.698 58.1467C147.412 56.5277 147.749 54.7681 147.685 53C150.271 58.5664 149.851 136.108 150.122 145.177C151.174 180.456 148.16 213.121 145.248 219.78Z" fill="url(#paint2_linear_10_120)"/>
<circle cx="467.5" cy="148.5" r="146.5" fill="#393939" stroke="black" stroke-width="4"/>
<path d="M396.59 132.733C403.687 107.5 432.531 96.758 452.703 112.071L453.179 112.438L453.727 112.877C465.093 122.141 467.881 135.101 467.321 149.394L467.283 150.354H402.722C402.459 162.489 406.705 172.092 413.688 177.796C420.841 183.638 431.018 185.517 442.584 181.651C446.261 180.325 449.553 178.109 452.164 175.2C454.779 172.287 456.631 168.771 457.554 164.967L457.561 164.936L457.57 164.905C458.227 162.791 459.177 161.278 460.705 160.57C462.202 159.877 463.973 160.092 465.92 160.689L466.726 160.937L466.618 161.773C465.968 166.837 464.178 171.688 461.383 175.96C458.588 180.232 454.859 183.815 450.479 186.438L450.463 186.449L450.446 186.458C443.241 190.399 434.974 191.961 426.827 190.921C418.681 189.881 411.071 186.291 405.088 180.666L405.056 180.636L405.025 180.602C399.116 173.95 395.545 165.549 394.856 156.679L394.853 156.64V156.601C394.852 155.346 394.433 154.225 394.073 152.82L394.044 152.705L394.043 152.585C394.013 150.244 393.999 147.903 394 145.562V144.943L394.13 144.878L396.572 132.806L396.58 132.77L396.59 132.733ZM471.542 107.324C473.845 106.494 476.364 106.483 478.674 107.293C480.963 108.096 482.909 109.656 484.19 111.715L505.008 139.833L525.917 111.865C527.03 109.806 528.85 108.218 531.045 107.398C533.268 106.568 535.72 106.583 537.933 107.441L539.166 107.919L538.37 108.976L527.107 123.922L527.102 123.93L511.847 143.788L511.789 143.862L511.719 143.925C511.4 144.209 511.145 144.557 510.971 144.946C510.796 145.336 510.706 145.758 510.706 146.185C510.706 146.611 510.796 147.033 510.971 147.423C511.123 147.764 511.338 148.074 511.603 148.336L511.719 148.445L511.794 148.512L511.854 148.592L540.912 187.377L540.278 187.852L540.526 188.905C538.185 189.791 535.601 189.789 533.261 188.9C530.947 188.021 529.031 186.334 527.864 184.152L507.041 155.355L504.824 152.399L481.446 184.192C480.344 186.284 478.529 187.914 476.326 188.779C474.094 189.656 471.619 189.69 469.363 188.875L468.097 188.417L468.901 187.337L499.649 146.084L471.088 108.874L470.254 107.788L471.542 107.324ZM432.446 112.9C423.993 112.783 416.787 115.848 411.595 121.233C406.574 126.441 403.386 133.873 402.836 142.826H459.192C458.439 125.172 447.161 113.014 432.453 112.9H432.446Z" fill="white" stroke="white" stroke-width="2"/>
<circle cx="785.5" cy="148.5" r="146.5" fill="#3886AF" stroke="#86B8D2" stroke-width="4"/>
<path d="M801.966 148.447C801.966 139.363 794.371 131.997 785 131.997C775.631 131.997 768.034 139.363 768.034 148.447C768.034 157.533 775.631 164.898 785 164.898C794.371 164.898 801.966 157.533 801.966 148.447Z" fill="#45D1F6"/>
<path fill-rule="evenodd" clip-rule="evenodd" d="M840.103 117.907C843.685 103.79 848.189 77.6128 832.313 68.7377C816.51 59.9014 795.947 76.8334 785.088 86.9969C774.261 76.9347 753.12 60.0751 737.257 68.9783C721.461 77.8442 726.332 103.588 729.994 117.793C715.259 121.851 690 130.591 690 148.447C690 166.254 715.233 175.762 729.881 179.816C726.205 194.1 721.578 219.476 737.394 228.322C753.316 237.224 774.392 220.765 785.351 210.491C796.279 220.714 816.645 237.28 832.451 228.409C848.305 219.51 844.176 193.683 840.514 179.396C854.713 175.333 880 166.031 880 148.447C880 130.762 854.605 121.951 840.103 117.907ZM838.303 171.824C835.898 164.444 832.652 156.595 828.682 148.487C832.472 140.57 835.591 132.822 837.929 125.489C848.561 128.478 871.884 135.308 871.884 148.447C871.884 161.71 849.502 168.605 838.303 171.824ZM828.383 221.598C816.591 228.216 799.073 212.374 791.003 204.846C796.357 199.168 801.707 192.567 806.929 185.238C816.115 184.448 824.792 183.156 832.662 181.392C835.24 191.498 840.228 214.95 828.383 221.598ZM741.45 221.504C729.656 214.91 735.046 192.266 737.751 181.744C745.533 183.414 754.148 184.615 763.355 185.338C768.611 192.51 774.117 199.103 779.665 204.876C772.81 211.305 753.299 228.128 741.45 221.504ZM698.116 148.447C698.116 135.135 721.3 128.354 732.174 125.373C734.552 132.871 737.671 140.711 741.434 148.639C737.622 156.685 734.459 164.649 732.059 172.236C721.69 169.358 698.116 161.768 698.116 148.447ZM741.323 75.7891C753.165 69.1431 771.54 85.329 779.401 92.6142C773.881 98.3611 768.426 104.904 763.215 112.035C754.28 112.838 745.725 114.127 737.862 115.855C734.911 104.398 729.494 82.4281 741.323 75.7891ZM812.736 120.588C818.798 121.33 824.606 122.317 830.06 123.524C828.423 128.612 826.382 133.933 823.978 139.387C820.495 132.978 816.755 126.697 812.736 120.588ZM785.091 98.238C788.834 102.17 792.584 106.561 796.272 111.325C788.791 110.982 781.297 110.981 773.815 111.32C777.507 106.6 781.289 102.216 785.091 98.238ZM746.091 139.381C743.728 133.946 741.705 128.602 740.054 123.441C745.475 122.265 751.256 121.303 757.279 120.574C753.248 126.669 749.515 132.947 746.091 139.381ZM757.452 176.883C751.23 176.21 745.361 175.297 739.942 174.153C741.619 168.902 743.686 163.442 746.1 157.89C749.571 164.391 753.362 170.73 757.452 176.883ZM785.315 199.213C781.469 195.188 777.631 190.736 773.884 185.948C781.408 186.235 788.946 186.235 796.47 185.91C792.77 190.785 789.034 195.243 785.315 199.213ZM824.056 157.607C826.595 163.22 828.736 168.649 830.437 173.812C824.927 175.032 818.98 176.013 812.713 176.742C816.762 170.518 820.561 164.14 824.056 157.607ZM802.4 177.696C790.891 178.493 779.31 178.485 767.797 177.761C761.256 168.496 755.432 158.752 750.405 148.637C755.408 138.542 761.189 128.817 767.7 119.567C779.221 118.723 790.813 118.72 802.334 119.572C808.789 128.822 814.561 138.521 819.679 148.525C814.622 158.614 808.81 168.359 802.4 177.696ZM828.259 75.5552C840.104 82.1795 834.831 105.706 832.243 115.937C824.361 114.173 815.801 112.86 806.839 112.045C801.618 104.837 796.209 98.2829 790.779 92.6102C798.74 85.168 816.528 68.9957 828.259 75.5552Z" fill="#45D1F6"/>
<circle cx="1104.5" cy="148.5" r="146.5" fill="#79B743" stroke="#B1D096" stroke-width="4"/>
<path d="M1111.97 65.812C1107.66 63.3906 1102.05 63.4014 1097.74 65.812C1076.16 77.7228 1054.58 89.6372 1032.99 101.542C1028.79 103.752 1025.96 108.263 1026 112.945V184.911C1025.97 189.684 1028.95 194.239 1033.26 196.418C1039.46 199.717 1045.48 203.35 1051.8 206.429C1059.09 210.013 1068.21 210.805 1075.59 207.068C1081.58 203.972 1084.24 197.084 1084.23 190.754C1084.28 167.003 1084.24 143.252 1084.25 119.501C1084.4 118.445 1083.6 117.317 1082.45 117.343C1079.69 117.299 1076.93 117.317 1074.17 117.335C1073.13 117.237 1072.11 118.103 1072.19 119.15C1072.16 142.748 1072.2 166.353 1072.17 189.954C1072.23 193.219 1070.03 196.356 1066.88 197.459C1059.61 200.006 1038.87 186.539 1038.87 186.539C1038.11 186.187 1037.63 185.361 1037.7 184.541C1037.7 160.798 1037.71 137.054 1037.7 113.314C1037.6 112.357 1038.19 111.495 1039.07 111.104C1060.58 99.2637 1082.08 87.3935 1103.59 75.5457C1104.34 75.047 1105.38 75.0485 1106.12 75.5493C1127.64 87.3935 1149.14 99.2529 1170.66 111.094C1171.54 111.484 1172.1 112.361 1172.01 113.314C1172.01 137.054 1172.02 160.798 1172.01 184.538C1172.07 185.378 1171.63 186.192 1170.85 186.561C1149.54 198.337 1127.99 209.734 1106.87 221.853C1105.95 222.381 1104.9 222.98 1103.87 222.397C1098.32 219.326 1092.83 216.134 1087.3 213.033C1086.69 212.657 1085.93 212.496 1085.3 212.916C1082.82 214.224 1080.48 215.283 1077.63 216.412C1073.63 217.996 1074.27 218.644 1077.88 220.747C1084.35 224.41 1090.84 228.059 1097.31 231.726C1101.57 234.385 1107.3 234.574 1111.7 232.117C1133.28 220.221 1154.86 208.311 1176.45 196.415C1180.75 194.224 1183.74 189.687 1183.71 184.911V112.945C1183.76 108.358 1181.03 103.928 1176.96 101.685C1155.3 89.7164 1133.63 77.7736 1111.97 65.812Z" fill="white"/>
<path d="M1144.54 119.844C1136.07 115.312 1125.99 115.07 1116.57 115.663C1109.77 116.335 1102.62 118.212 1097.66 123.088C1092.58 127.989 1091.47 135.904 1093.89 142.302C1095.62 146.824 1099.97 149.764 1104.48 151.319C1110.28 153.367 1116.37 154 1122.46 154.634C1128.02 155.211 1133.58 155.789 1138.93 157.441C1141.11 158.164 1143.65 159.27 1144.32 161.645C1144.94 164.457 1144.26 167.726 1141.98 169.68C1134.72 175.42 1114.55 174.541 1107.38 170.023C1104.49 168.098 1103.24 164.691 1102.73 161.444C1102.67 160.432 1101.86 159.504 1100.76 159.581C1098.01 159.548 1095.26 159.555 1092.51 159.577C1091.55 159.497 1090.55 160.18 1090.5 161.159C1089.93 176.031 1103.59 182.514 1116.41 183.942C1123.73 184.639 1131.21 184.599 1138.42 183.028C1143.84 181.794 1149.27 179.522 1153 175.348C1157.6 170.275 1158.51 162.722 1156.44 156.404C1154.87 151.689 1150.36 148.664 1145.75 147.108C1139.49 144.96 1132.06 143.805 1126.38 143.264C1118.13 142.479 1108.33 142.799 1106 137.379C1105.07 134.541 1105.86 131.016 1108.47 129.271C1115.37 124.59 1129.41 125.211 1136.56 128.708C1139.84 130.352 1141.74 133.727 1142.53 137.134C1142.67 138.135 1143.35 139.179 1144.51 139.136C1147.24 139.19 1149.97 139.15 1152.7 139.154C1153.64 139.219 1154.67 138.69 1154.85 137.729C1154.74 130.608 1151.1 123.318 1144.54 119.844Z" fill="white"/>
<path d="M107.176 432V353.04H121.624L150.184 405.008H146.376L174.824 353.04H189.048V432H173.256V379.584H175.72L152.872 420.128H143.128L120.168 379.472H122.856V432H107.176Z" fill="#4BA74B"/>
<path d="M440.952 432V353.04H495.048V366.592H457.528V385.072H492.584V398.736H457.528V418.448H495.048V432H440.952Z" fill="#393939"/>
<path d="M753.952 432V353.04H790.016C798.827 353.04 805.621 355.168 810.4 359.424C815.179 363.68 817.568 369.616 817.568 377.232C817.568 382.16 816.485 386.416 814.32 390C812.155 393.584 809.019 396.347 804.912 398.288C800.88 400.229 795.915 401.2 790.016 401.2L790.912 399.296H795.504C798.64 399.296 801.365 400.08 803.68 401.648C806.069 403.141 808.123 405.456 809.84 408.592L822.608 432H803.456L789.792 406.8C789.045 405.456 788.187 404.411 787.216 403.664C786.245 402.843 785.125 402.283 783.856 401.984C782.661 401.611 781.317 401.424 779.824 401.424H771.312V432H753.952ZM771.312 388.88H786.88C791.509 388.88 794.981 387.947 797.296 386.08C799.685 384.213 800.88 381.413 800.88 377.68C800.88 374.021 799.685 371.259 797.296 369.392C794.981 367.525 791.509 366.592 786.88 366.592H771.312V388.88Z" fill="#3886AF"/>
<path d="M1069.95 432V353.04H1082.83L1125.28 407.136H1122.26V353.04H1138.38V432H1125.62L1083.17 377.792H1086.08V432H1069.95Z" fill="#79B743"/>
<defs>
<linearGradient id="paint0_linear_10_120" x1="118.67" y1="149.748" x2="177.263" y2="169.631" gradientUnits="userSpaceOnUse">
<stop offset="0.231" stop-color="#999875"/>
<stop offset="0.563" stop-color="#9B9977"/>
<stop offset="0.683" stop-color="#A09F7E"/>
<stop offset="0.768" stop-color="#A9A889"/>
<stop offset="0.837" stop-color="#B7B69A"/>
<stop offset="0.896" stop-color="#C9C7B0"/>
<stop offset="0.948" stop-color="#DEDDCB"/>
<stop offset="0.994" stop-color="#F8F6EB"/>
<stop offset="1" stop-color="#FBF9EF"/>
</linearGradient>
<linearGradient id="paint1_linear_10_120" x1="140.156" y1="52.6191" x2="166.061" y2="214.376" gradientUnits="userSpaceOnUse">
<stop stop-color="#48A547"/>
<stop offset="1" stop-color="#3F9143"/>
</linearGradient>
<linearGradient id="paint2_linear_10_120" x1="102.526" y1="146.372" x2="172.042" y2="123.092" gradientUnits="userSpaceOnUse">
<stop stop-color="#41A247"/>
<stop offset="0.352" stop-color="#4BA74B"/>
<stop offset="0.956" stop-color="#67B554"/>
<stop offset="1" stop-color="#69B655"/>
</linearGradient>
</defs>
</svg>
