<svg width="210" height="64" viewBox="0 0 210 64" fill="none" xmlns="http://www.w3.org/2000/svg">
<path d="M186.734 62.0425C186.239 62.0425 185.744 61.9266 185.339 61.6486L180.926 58.9607C180.251 58.5667 180.589 58.4509 180.814 58.3814C181.534 58.1496 182.165 57.8484 182.817 57.4545C182.93 57.4081 183.042 57.4081 183.155 57.5008L186.554 59.5631C186.667 59.6326 186.847 59.6326 186.959 59.5631L200.196 51.6847C200.308 51.6152 200.376 51.453 200.376 51.3371V35.6035C200.376 35.4413 200.308 35.3023 200.196 35.2096L186.959 27.3775C186.847 27.308 186.689 27.308 186.554 27.3775L173.318 35.2096C173.205 35.2791 173.093 35.4413 173.093 35.6035V51.314C173.093 51.4762 173.16 51.6152 173.318 51.6615L176.942 53.8397C178.9 54.8592 180.116 53.6543 180.116 52.4726V36.9011C180.116 36.6694 180.296 36.5072 180.499 36.5072H182.165C182.39 36.5072 182.547 36.6694 182.547 36.9011V52.4262C182.547 55.1373 181.107 56.6898 178.63 56.6898C177.865 56.6898 177.28 56.6898 175.569 55.8325L172.102 53.7702C171.224 53.2604 170.707 52.2872 170.707 51.2908V35.5571C170.707 34.5376 171.224 33.5875 172.102 33.0778L185.339 25.1994C186.216 24.6896 187.252 24.6896 188.13 25.1994L201.366 33.0778C202.244 33.5875 202.762 34.5608 202.762 35.5571V51.314C202.762 52.3335 202.244 53.2836 201.366 53.7934L188.13 61.6718C187.725 61.9266 187.229 62.0425 186.734 62.0425Z" fill="#699F63"/>
<path d="M191.127 51.7021C185.357 51.7021 184.149 48.9187 184.149 46.516C184.149 46.2781 184.305 46.1116 184.529 46.1116H186.207C186.386 46.1116 186.542 46.2781 186.587 46.4684C186.855 48.3002 187.593 49.2518 191.083 49.2518C193.856 49.2518 195.064 48.5857 195.064 47.0156C195.064 46.0878 194.728 45.4693 190.412 44.9935C186.811 44.6367 184.574 43.7565 184.574 40.6876C184.574 37.8567 186.833 36.1915 190.568 36.1915C194.795 36.1915 196.853 37.7378 197.122 41.0921C197.122 41.211 197.077 41.33 197.01 41.4013C196.943 41.4727 196.831 41.5203 196.741 41.5203H195.019C194.84 41.5203 194.684 41.4013 194.639 41.211C194.236 39.2603 193.207 38.6656 190.523 38.6656C187.482 38.6656 187.146 39.7837 187.146 40.6163C187.146 41.663 187.549 41.9247 191.642 42.4956C195.735 43.0666 197.591 43.8516 197.591 46.8729C197.614 49.9179 195.332 51.7021 191.127 51.7021Z" fill="#699F63"/>
<path d="M210 34.6404C210 36.0463 208.866 37.2255 207.415 37.2255C206.009 37.2255 204.83 36.0917 204.83 34.6404C204.83 33.2345 205.964 32.0553 207.415 32.0553C208.821 32.0553 210 33.2118 210 34.6404ZM205.238 34.6404C205.238 35.8196 206.19 36.7946 207.392 36.7946C208.571 36.7946 209.547 35.8422 209.547 34.6404C209.547 33.4612 208.594 32.4861 207.392 32.4861C206.236 32.4861 205.238 33.4386 205.238 34.6404ZM206.463 33.2118H207.46C207.8 33.2118 208.458 33.2118 208.458 33.9828C208.503 34.3229 208.277 34.6177 207.936 34.7084C208.322 34.7538 208.345 35.0032 208.39 35.3887C208.39 35.6608 208.458 35.9103 208.549 36.1597H207.914C207.914 36.001 207.8 35.2753 207.8 35.2527C207.755 35.0939 207.687 35.0259 207.506 35.0259H207.007V36.1597H206.485V33.2118H206.463ZM206.984 34.459H207.438C207.664 34.5043 207.846 34.3456 207.846 34.1188C207.846 34.0735 207.846 34.0735 207.846 34.0508C207.846 33.6653 207.574 33.6653 207.438 33.6653H206.984V34.459Z" fill="#699F63"/>
<path fill-rule="evenodd" clip-rule="evenodd" d="M34.8114 33.6019C34.8114 32.9216 34.4384 32.2917 33.8417 31.9641L18.3506 22.9185C18.1019 22.7421 17.8036 22.6665 17.5052 22.6665H17.3062C17.0079 22.6665 16.7343 22.7421 16.436 22.9185L0.969747 31.9389C0.397845 32.2665 0 32.9216 0 33.5767L0.0497298 57.9421C0.0497298 58.2696 0.223788 58.572 0.497306 58.7484C0.770824 58.9248 1.11894 58.9248 1.41732 58.7484L10.6672 53.4318C11.2391 53.1043 11.5872 52.4492 11.637 51.794V40.4051C11.637 39.7248 12.0099 39.0948 12.557 38.7673L16.4608 36.4996C16.7592 36.3232 17.0825 36.2476 17.4306 36.2476C17.7538 36.2476 18.1019 36.3232 18.3506 36.4996L22.2544 38.7673C22.8263 39.0948 23.1745 39.75 23.1745 40.4051V51.794C23.1745 52.4744 23.5474 53.1043 24.1442 53.4318L33.3444 58.7988C33.6428 58.9752 34.0157 58.9752 34.3141 58.7988C34.6125 58.6224 34.7617 58.3452 34.7617 57.9925L34.8114 33.6019Z" fill="#333333"/>
<path fill-rule="evenodd" clip-rule="evenodd" d="M109.457 0.115344C109.009 -0.136625 108.413 0.0397534 108.164 0.493296C108.089 0.619281 108.04 0.795659 108.04 0.94684V25.0854C108.04 25.3374 107.915 25.539 107.716 25.6649C107.517 25.7909 107.269 25.7909 107.045 25.6649L103.166 23.3972C102.594 23.0697 101.873 23.0697 101.301 23.3972L85.7603 32.4681C85.1884 32.7956 84.7905 33.4508 84.7905 34.1059V52.2476C84.7905 52.9279 85.1635 53.5578 85.7603 53.8854L101.301 62.9563C101.873 63.2838 102.594 63.2838 103.166 62.9563L118.707 53.8854C119.279 53.5578 119.627 52.9027 119.677 52.2476V6.99408C119.677 6.31377 119.304 5.68385 118.707 5.35629L109.457 0.115344ZM107.99 46.3011C107.99 46.4775 107.915 46.6287 107.741 46.7295L102.42 49.8539C102.246 49.9295 102.097 49.9295 101.972 49.8539L96.6513 46.7295C96.527 46.6539 96.4026 46.4775 96.4026 46.3011V40.0523C96.4026 39.876 96.4772 39.7248 96.6513 39.624L101.972 36.4996C102.097 36.424 102.296 36.424 102.42 36.4996L107.741 39.624C107.866 39.6996 107.99 39.876 107.99 40.0523V46.3011Z" fill="#333333"/>
<path fill-rule="evenodd" clip-rule="evenodd" d="M161.152 39.7253C161.724 39.3977 162.072 38.7426 162.072 38.0875V33.7032C162.072 33.0229 161.699 32.393 161.152 32.0654L145.735 22.9946C145.163 22.667 144.442 22.667 143.871 22.9946L128.379 32.0654C127.808 32.393 127.41 33.0481 127.41 33.7032V51.845C127.41 52.5253 127.783 53.1552 128.379 53.4827L143.796 62.4024C144.368 62.73 145.039 62.73 145.636 62.4024L154.96 57.1615C155.408 56.9095 155.582 56.3048 155.333 55.8512C155.259 55.6749 155.134 55.5489 154.96 55.4733L139.345 46.4024C139.047 46.2261 138.897 45.9489 138.897 45.5457V39.8765C138.897 39.5489 139.071 39.2465 139.345 39.0701L144.219 36.2481C144.517 36.0717 144.84 36.0717 145.139 36.2481L150.012 39.0701C150.311 39.2465 150.46 39.5237 150.46 39.8765V44.3615C150.46 44.8654 150.883 45.2938 151.38 45.3442C151.554 45.3442 151.703 45.2938 151.827 45.2182L161.152 39.7253Z" fill="#333333"/>
<path fill-rule="evenodd" clip-rule="evenodd" d="M144.542 39.0444C144.666 38.9688 144.791 38.9688 144.915 39.0444L147.924 40.783C148.048 40.8586 148.098 40.9594 148.098 41.1106V44.5625C148.098 44.6885 148.023 44.8145 147.924 44.8649L144.965 46.6035C144.84 46.6791 144.716 46.6791 144.592 46.6035L141.633 44.8649C141.508 44.7893 141.459 44.6885 141.459 44.5625V41.1106C141.459 40.9846 141.533 40.8586 141.633 40.783L144.542 39.0444Z" fill="#699F63"/>
<path fill-rule="evenodd" clip-rule="evenodd" d="M60.7461 23.1957C60.1742 22.8681 59.4531 22.8681 58.8812 23.1957L43.4647 32.2413C42.8928 32.5689 42.5447 33.224 42.5447 33.8791V51.9453C42.5447 52.6256 42.9177 53.2555 43.4647 53.5831L58.8812 62.6287C59.4531 62.9563 60.1742 62.9563 60.7461 62.6287L76.1626 53.5831C76.7345 53.2555 77.0826 52.6004 77.0826 51.9453V33.8791C77.0826 33.1988 76.7096 32.5689 76.1626 32.2413L60.7461 23.1957Z" fill="url(#paint0_linear_2_3)"/>
<path d="M76.2122 32.2412L60.7212 23.1955C60.5471 23.1199 60.3979 23.0192 60.2239 22.994L42.843 53.1294C43.0171 53.3058 43.1663 53.4569 43.3403 53.5577L58.8314 62.6034C59.2541 62.8554 59.8012 62.9309 60.2985 62.7798L76.5852 32.5436C76.5106 32.4428 76.3863 32.3168 76.2122 32.2412Z" fill="url(#paint1_linear_2_3)"/>
<path d="M58.3837 19.92L58.1599 20.046H58.4583L58.3837 19.92Z" fill="url(#paint2_linear_2_3)"/>
<path d="M76.2123 53.5578C76.6598 53.3058 77.008 52.8775 77.1323 52.3735L60.1742 22.994C59.7266 22.9184 59.2541 22.994 58.8812 23.1956L43.5144 32.1909L60.1244 62.8302C60.3731 62.7798 60.572 62.7042 60.7958 62.5783L76.2123 53.5578Z" fill="url(#paint3_linear_2_3)"/>
<path d="M77.6793 53.3058L77.5798 53.1042V53.3562L77.6793 53.3058Z" fill="url(#paint4_linear_2_3)"/>
<path d="M76.2123 53.5578L60.7461 62.6034C60.5472 62.7294 60.2985 62.805 60.0747 62.8554L60.3731 63.4097L77.5302 53.3562V53.1042L77.1074 52.3483C77.008 52.8775 76.6599 53.3058 76.2123 53.5578Z" fill="url(#paint5_linear_2_3)"/>
<path d="M76.2123 53.5578L60.7461 62.6034C60.5472 62.7294 60.2985 62.805 60.0747 62.8554L60.3731 63.4097L77.5302 53.3562V53.1042L77.1074 52.3483C77.008 52.8775 76.6599 53.3058 76.2123 53.5578Z" fill="url(#paint6_linear_2_3)"/>
<defs>
<linearGradient id="paint0_linear_2_3" x1="66.0983" y1="29.933" x2="51.8556" y2="58.6124" gradientUnits="userSpaceOnUse">
<stop stop-color="#41873F"/>
<stop offset="0.33" stop-color="#418B3D"/>
<stop offset="0.64" stop-color="#409637"/>
<stop offset="0.93" stop-color="#3FA92D"/>
<stop offset="1" stop-color="#3FAE2A"/>
</linearGradient>
<linearGradient id="paint1_linear_2_3" x1="57.4464" y1="44.9797" x2="96.9349" y2="16.1872" gradientUnits="userSpaceOnUse">
<stop offset="0.14" stop-color="#41873F"/>
<stop offset="0.4" stop-color="#54A044"/>
<stop offset="0.71" stop-color="#66B748"/>
<stop offset="0.91" stop-color="#6CC04A"/>
</linearGradient>
<linearGradient id="paint2_linear_2_3" x1="41.9828" y1="19.9755" x2="77.6673" y2="19.9755" gradientUnits="userSpaceOnUse">
<stop offset="0.09" stop-color="#6CC04A"/>
<stop offset="0.29" stop-color="#66B748"/>
<stop offset="0.6" stop-color="#54A044"/>
<stop offset="0.86" stop-color="#41873F"/>
</linearGradient>
<linearGradient id="paint3_linear_2_3" x1="41.9794" y1="42.9029" x2="77.6673" y2="42.9029" gradientUnits="userSpaceOnUse">
<stop offset="0.09" stop-color="#6CC04A"/>
<stop offset="0.29" stop-color="#66B748"/>
<stop offset="0.6" stop-color="#54A044"/>
<stop offset="0.86" stop-color="#41873F"/>
</linearGradient>
<linearGradient id="paint4_linear_2_3" x1="41.9836" y1="53.2193" x2="77.6672" y2="53.2193" gradientUnits="userSpaceOnUse">
<stop offset="0.09" stop-color="#6CC04A"/>
<stop offset="0.29" stop-color="#66B748"/>
<stop offset="0.6" stop-color="#54A044"/>
<stop offset="0.86" stop-color="#41873F"/>
</linearGradient>
<linearGradient id="paint5_linear_2_3" x1="41.9795" y1="57.8629" x2="77.6673" y2="57.8629" gradientUnits="userSpaceOnUse">
<stop offset="0.09" stop-color="#6CC04A"/>
<stop offset="0.29" stop-color="#66B748"/>
<stop offset="0.6" stop-color="#54A044"/>
<stop offset="0.86" stop-color="#41873F"/>
</linearGradient>
<linearGradient id="paint6_linear_2_3" x1="82.8543" y1="29.0737" x2="60.3713" y2="74.338" gradientUnits="userSpaceOnUse">
<stop stop-color="#41873F"/>
<stop offset="0.33" stop-color="#418B3D"/>
<stop offset="0.64" stop-color="#409637"/>
<stop offset="0.93" stop-color="#3FA92D"/>
<stop offset="1" stop-color="#3FAE2A"/>
</linearGradient>
</defs>
</svg>
