<svg width="29" height="29" viewBox="0 0 29 29" fill="none" xmlns="http://www.w3.org/2000/svg">
<path d="M16.2049 0.424194V2.35263C18.1123 2.35263 19.8992 2.83474 21.5657 3.79896C23.1518 4.74309 24.4167 6.00863 25.3603 7.59557C26.3241 9.26286 26.8059 11.0507 26.8059 12.959H28.7334C28.7334 10.6891 28.1612 8.57988 27.0168 6.63135C25.9125 4.74309 24.4167 3.24654 22.5294 2.14171C20.5819 0.996699 18.4737 0.424194 16.2049 0.424194ZM6.23636 3.31685C5.69426 3.31685 5.22243 3.4876 4.82088 3.82909L1.71888 6.99293L1.80923 6.93267C1.30729 7.35451 0.976004 7.8768 0.815382 8.49952C0.674839 9.12225 0.714994 9.72488 0.935848 10.3074C1.49802 11.8743 2.25094 13.4813 3.19459 15.1285C4.51971 17.3985 6.09581 19.4374 7.92288 21.2453C10.8542 24.1982 14.4983 26.5284 18.8552 28.2359H18.8853C19.4675 28.4368 20.0498 28.4769 20.6321 28.3564C21.2344 28.2359 21.7664 27.9747 22.2282 27.573L25.27 24.5297C25.6716 24.1279 25.8723 23.6357 25.8723 23.0532C25.8723 22.4506 25.6716 21.9484 25.27 21.5466L21.3247 17.5692C20.9232 17.1674 20.4212 16.9666 19.8189 16.9666C19.2166 16.9666 18.7146 17.1674 18.3131 17.5692L16.4157 19.4976C14.8898 18.7745 13.5647 17.8806 12.4404 16.8159C11.316 15.7312 10.4226 14.4154 9.75999 12.8686L11.6874 10.9402C12.1091 10.4983 12.3199 9.97598 12.3199 9.37335C12.3199 8.75062 12.079 8.24843 11.5971 7.86676L11.6874 7.95715L7.65183 3.82909C7.25028 3.4876 6.77845 3.31685 6.23636 3.31685ZM16.2049 4.28107V6.20951C17.4297 6.20951 18.554 6.51082 19.578 7.11346C20.622 7.7161 21.4452 8.5397 22.0475 9.58427C22.6499 10.6088 22.951 11.7337 22.951 12.959H24.8785C24.8785 11.3922 24.487 9.93581 23.7039 8.58992C22.9209 7.28421 21.8769 6.23964 20.5718 5.45621C19.2266 4.67278 17.771 4.28107 16.2049 4.28107ZM6.23636 5.24529C6.29659 5.24529 6.36686 5.27542 6.44717 5.33568L10.3924 9.37335C10.4125 9.4537 10.3924 9.52401 10.3322 9.58427L7.47113 12.4167L7.68195 13.0193L8.07346 13.863C8.39471 14.546 8.76614 15.2089 9.18778 15.8517C9.77003 16.7556 10.4125 17.529 11.1152 18.1718C12.0589 19.0959 13.1933 19.9396 14.5184 20.7029C15.181 21.0846 15.7431 21.3658 16.2049 21.5466L16.8073 21.8178L19.7286 18.895C19.7687 18.8548 19.7988 18.8347 19.8189 18.8347C19.839 18.8347 19.8691 18.8548 19.9093 18.895L23.975 22.9628C24.0151 23.003 24.0352 23.0331 24.0352 23.0532C24.0352 23.0532 24.0151 23.0733 23.975 23.1135L20.9633 26.0965C20.5216 26.4782 20.0398 26.5786 19.5177 26.3978C15.4219 24.8109 12.0087 22.6414 9.27812 19.8894C7.5916 18.202 6.11589 16.2836 4.851 14.1342C3.9475 12.5874 3.24478 11.0909 2.74284 9.64453V9.6144C2.66253 9.43361 2.65249 9.22269 2.71272 8.98163C2.77296 8.72049 2.88338 8.51961 3.044 8.379L6.02554 5.33568C6.08577 5.27542 6.15605 5.24529 6.23636 5.24529ZM16.2049 8.13794V10.0664C17.008 10.0664 17.6907 10.3476 18.2528 10.9101C18.815 11.4725 19.0961 12.1555 19.0961 12.959H21.0236C21.0236 12.0953 20.8027 11.2917 20.361 10.5485C19.9394 9.80524 19.3571 9.22269 18.6142 8.80084C17.8714 8.35891 17.0683 8.13794 16.2049 8.13794Z" fill="#692FA2"/>
</svg>
