<svg width="158" height="278" viewBox="0 0 158 278" fill="none" xmlns="http://www.w3.org/2000/svg">
<path d="M157.971 220.681C147.531 250.583 117.951 273.728 86.5714 277.615C52.4315 281.802 21.1116 251.181 25.0716 217.092C29.3316 180.013 63.7115 159.26 81.4714 129.178C89.9914 114.705 93.9514 98.3187 89.0915 81.8722C84.2315 65.4258 72.4715 51.6107 58.4916 41.9222C42.4716 30.8582 23.6917 25.1767 4.55171 22.1865C-13.8082 19.3158 -34.0281 20.5717 -51.0081 12.0794C-54.7281 10.2254 -58.1481 6.81648 -61.2081 4.00562C-63.548 1.79283 -60.1881 -1.31705 -57.7881 0.59672C-54.2481 3.34777 -50.1681 4.7831 -46.0881 6.45765C-42.0681 8.1322 -37.9282 9.3283 -33.7282 10.2254C-24.5482 12.199 -15.0082 12.498 -5.70822 13.5745C13.6117 15.7873 32.8116 19.6746 50.2116 28.5856C79.5515 43.537 104.391 74.576 97.3114 109.084C94.0714 124.812 84.8314 138.568 74.8715 150.888C64.0115 164.224 50.9915 175.886 42.1116 190.718C32.8716 206.148 28.1317 224.687 35.3916 241.852C41.5116 256.265 54.5915 267.688 69.7115 271.814C85.4914 276.18 102.531 271.635 116.691 264.279C131.211 256.683 143.631 245.081 151.971 230.967C153.951 227.558 155.751 224.03 157.371 220.441C157.431 219.903 158.151 220.202 157.971 220.681Z" fill="#D2A4FF"/>
</svg>
