<svg width="210" height="49" viewBox="0 0 210 49" fill="none" xmlns="http://www.w3.org/2000/svg">
<g clip-path="url(#clip0_6_73)">
<path d="M79.1799 23.7814C79.1799 17.3522 77.3435 14.0515 73.6703 13.871C72.2085 13.8021 70.7821 14.0343 69.3938 14.5725C68.2859 14.9681 67.5402 15.3602 67.1478 15.7562V31.1019C69.4973 32.5739 71.5836 33.2582 73.4032 33.1505C77.2524 32.8957 79.1799 29.7761 79.1799 23.7814ZM83.7107 24.048C83.7107 27.3143 82.9434 30.0255 81.3998 32.1814C79.6797 34.6216 77.2958 35.8781 74.2479 35.947C71.9502 36.0198 69.5831 35.3015 67.1474 33.7951V47.7426L63.207 46.3395V15.3813C63.8537 14.5897 64.686 13.9098 65.6945 13.3328C68.0399 11.9685 70.8892 11.2674 74.2435 11.233L74.2992 11.2886C77.3647 11.2502 79.7266 12.5067 81.3865 15.0542C82.9345 17.3911 83.7107 20.3862 83.7107 24.048ZM107.792 33.2017C107.792 37.5827 107.352 40.6163 106.473 42.3033C105.59 43.9898 103.908 45.3368 101.425 46.3399C99.4116 47.1315 97.2342 47.562 94.898 47.6353L94.2465 45.1567C96.6221 44.8344 98.2948 44.5112 99.2648 44.1885C101.175 43.543 102.485 42.5536 103.205 41.2278C103.783 40.1479 104.067 38.0865 104.067 35.0357V34.0114C101.373 35.2339 98.5491 35.8406 95.5964 35.8406C93.6561 35.8406 91.9449 35.2339 90.4703 34.0114C88.8148 32.6816 87.9872 30.9951 87.9872 28.9509V12.58L91.9276 11.233V27.7103C91.9276 29.4701 92.4964 30.826 93.6344 31.777C94.7724 32.728 96.247 33.1845 98.0533 33.1496C99.8596 33.1108 101.795 32.4136 103.851 31.0494V11.8264H107.792L107.792 33.2017ZM123.174 35.732C122.742 35.7683 122.309 35.7869 121.876 35.7876C119.647 35.7876 117.91 35.2587 116.668 34.1955C115.431 33.1328 114.81 31.6657 114.81 29.7933V14.301H112.112V11.8268H114.81V5.2555L118.746 3.85682V11.8268H123.174V14.301H118.746V29.6856C118.746 31.162 119.143 32.2074 119.936 32.8189C120.617 33.3222 121.699 33.6105 123.173 33.6838V35.732H123.174ZM147.031 35.4092H143.091V20.2268C143.091 18.682 142.729 17.3522 142.009 16.2423C141.177 14.9853 140.022 14.3571 138.538 14.3571C136.732 14.3571 134.473 15.3081 131.762 17.21V35.4092H127.822V-0.880943L131.762 -2.12024V14.4087C134.279 12.5796 137.03 11.663 140.017 11.663C142.104 11.663 143.794 12.3646 145.087 13.7632C146.385 15.1615 147.032 16.9045 147.032 18.9875L147.031 35.4092ZM167.974 23.1619C167.974 20.6917 167.504 18.652 166.569 17.0383C165.456 15.0719 163.728 14.0343 161.391 13.927C157.071 14.1765 154.916 17.2661 154.916 23.188C154.916 25.9032 155.364 28.1712 156.269 29.9915C157.425 32.3112 159.158 33.456 161.469 33.4172C165.806 33.3823 167.974 29.9655 167.974 23.1619ZM172.29 23.1875C172.29 26.7037 171.389 29.6299 169.591 31.9664C167.611 34.5832 164.879 35.8953 161.391 35.8953C157.934 35.8953 155.239 34.5827 153.295 31.9664C151.532 29.6299 150.652 26.7037 150.652 23.1875C150.652 19.8829 151.605 17.1028 153.51 14.8392C155.524 12.4379 158.17 11.233 161.443 11.233C164.714 11.233 167.379 12.4379 169.431 14.8392C171.337 17.1028 172.29 19.8829 172.29 23.1875ZM194.879 35.4092H190.939V19.3663C190.939 17.6065 190.409 16.2334 189.348 15.2436C188.288 14.2582 186.873 13.7805 185.11 13.8189C183.24 13.8533 181.459 14.4643 179.769 15.648V35.4092H175.829V15.1619C178.096 13.5142 180.183 12.4379 182.089 11.9345C183.886 11.4657 185.473 11.233 186.839 11.233C187.774 11.233 188.654 11.3231 189.482 11.5041C191.029 11.8613 192.289 12.5239 193.258 13.4966C194.34 14.5725 194.879 15.863 194.879 17.3738V35.4092Z" fill="#646464"/>
<path d="M24.29 -0.735714C22.2625 -0.726442 20.3266 -0.553815 18.6234 -0.25271C13.6051 0.632502 12.694 2.4846 12.694 5.90095V10.4127H24.5527V11.9164H8.24323C4.7969 11.9164 1.77871 13.9844 0.834866 17.9182C-0.254053 22.4273 -0.302263 25.2409 0.834866 29.9491C1.67787 33.4538 3.69118 35.9509 7.13751 35.9509H11.215V30.5425C11.215 26.6352 14.6016 23.1888 18.6234 23.1888H30.4683C33.7656 23.1888 36.3977 20.4789 36.3977 17.1734V5.90051C36.3977 2.69255 33.6864 0.282391 30.4683 -0.253152C28.4307 -0.591342 26.3174 -0.745427 24.29 -0.735714ZM17.8768 2.89255C19.1019 2.89255 20.1019 3.90756 20.1019 5.15525C20.1019 6.39852 19.1015 7.40426 17.8768 7.40426C16.6476 7.40426 15.6516 6.39896 15.6516 5.15525C15.6516 3.90756 16.6476 2.89255 17.8768 2.89255Z" fill="url(#paint0_linear_6_73)"/>
<path d="M37.877 11.916V17.1725C37.877 21.248 34.4157 24.678 30.4687 24.678H18.6237C15.379 24.678 12.6943 27.4498 12.6943 30.6935V41.9655C12.6943 45.1739 15.4887 47.0609 18.6237 47.981C22.3774 49.083 25.9772 49.2821 30.4687 47.981C33.4541 47.1183 36.398 45.3814 36.398 41.9655V37.4542H24.553V35.9505H42.3274C45.7741 35.9505 47.0581 33.5505 48.2567 29.9487C49.4951 26.241 49.4425 22.6745 48.2567 17.9178C47.4049 14.493 45.7781 11.916 42.3274 11.916H37.877ZM31.2148 40.4617C32.4439 40.4617 33.44 41.467 33.44 42.7108C33.44 43.9584 32.4439 44.9735 31.2148 44.9735C29.9897 44.9735 28.9896 43.9584 28.9896 42.7108C28.9896 41.4675 29.9901 40.4617 31.2148 40.4617Z" fill="url(#paint1_linear_6_73)"/>
<path d="M202.553 8.31994H203.244V3.99498H204.88V3.47931H200.916V3.99498H202.552L202.553 8.31994ZM205.493 8.31994H206.083V4.36982L207.364 8.3195H208.021L209.356 4.38306V8.31994H210V3.47975H209.148L207.689 7.62678L206.445 3.47975H205.493V8.31994Z" fill="#646464"/>
</g>
<defs>
<linearGradient id="paint0_linear_6_73" x1="-1.1696" y1="0.673109" x2="26.1354" y2="23.9793" gradientUnits="userSpaceOnUse">
<stop stop-color="#5A9FD4"/>
<stop offset="1" stop-color="#306998"/>
</linearGradient>
<linearGradient id="paint1_linear_6_73" x1="36.4378" y1="38.4303" x2="26.6498" y2="24.6913" gradientUnits="userSpaceOnUse">
<stop stop-color="#FFD43B"/>
<stop offset="1" stop-color="#FFE873"/>
</linearGradient>
<clipPath id="clip0_6_73">
<rect width="210" height="49" fill="white"/>
</clipPath>
</defs>
</svg>
