<svg width="210" height="74" viewBox="0 0 210 74" fill="none" xmlns="http://www.w3.org/2000/svg">
<g clip-path="url(#clip0_8_79)">
<path d="M89.8715 62.081C89.8715 62.081 99.1284 61.285 99.1284 49.2919C99.1284 37.2987 87.9143 36.1843 87.9143 36.1843H67.7078V74.0211H77.8639V64.8936L86.6448 74.0211H101.667L89.8715 62.081ZM85.9571 54.3333H77.8639V45.6833H86.01C86.01 45.6833 88.2846 46.5324 88.2846 49.9818C88.2846 53.4311 85.9571 54.3333 85.9571 54.3333ZM124.201 36.4497H113.887C106.534 36.4497 104.048 43.1361 104.048 46.3201V74.0211H114.363V67.3877H124.043V74.0211H134.04V46.3201C134.04 38.2539 126.741 36.4497 124.201 36.4497ZM124.043 56.6682H114.31V47.4876C114.31 47.4876 114.31 45.418 117.536 45.418H121.081C123.937 45.418 123.99 47.4876 123.99 47.4876V56.6682H124.043ZM138.748 36.4497H149.486V74.0211H138.748V36.4497ZM164.562 64.3099V36.4497H153.877V64.3099V74.0211H164.562H179.002V64.3099H164.562ZM182.547 64.416V74.0211H199.844C203.388 74.0211 209.471 71.4208 209.683 64.1507V60.436C209.683 54.2271 204.604 50.5655 199.844 50.5655H191.222V46.1079H208.307V36.4497H191.909C187.678 36.4497 182.018 39.9521 182.018 46.4793V49.8226C182.018 56.3498 187.625 59.693 191.909 59.693C203.811 59.7461 189.053 59.693 200.055 59.693V64.3629L182.547 64.416Z" fill="#CC0000"/>
<path d="M3.70277 73.9681H45.4912C45.4912 73.9681 37.5038 37.4049 63.9521 22.5992C69.7179 19.7866 88.073 9.27935 118.118 31.5675C119.071 30.7715 119.97 30.1347 119.97 30.1347C119.97 30.1347 92.4635 2.59291 61.8363 5.67079C46.4433 7.05054 27.5063 21.1133 16.398 39.6868C5.28967 58.2602 3.70277 73.9681 3.70277 73.9681ZM90.7708 8.64255L90.9824 5.08706C90.5063 4.82172 89.1839 4.18492 85.8514 3.22971L85.6398 6.73214C87.3854 7.31587 89.0781 7.95268 90.7708 8.64255ZM85.7456 19.8928L85.534 23.236C87.2796 23.2891 89.0252 23.5013 90.7708 23.8728L90.9824 20.5826C89.1839 20.2112 87.4383 19.9989 85.7456 19.8928ZM66.1738 3.33584H66.7028L65.6448 0.0987549C64.005 0.0987549 62.3123 0.204889 60.5667 0.417157L61.5718 3.54811C63.1058 3.38891 64.6398 3.33584 66.1738 3.33584ZM68.7128 22.8645L69.9295 26.5261C71.4635 25.7832 72.9975 25.1464 74.5315 24.6688L73.3678 21.1664C71.5693 21.697 70.0353 22.2808 68.7128 22.8645ZM44.6977 8.90788L42.3174 5.24626C40.995 5.93613 39.6196 6.67907 38.1914 7.52814L40.6247 11.2428C42 10.3938 43.3224 9.59776 44.6977 8.90788ZM55.5416 32.7881L58.0806 36.6089C58.9798 35.2822 60.0378 34.0617 61.2015 32.8411L58.8212 29.2326C57.6045 30.347 56.4937 31.5675 55.5416 32.7881ZM47.8715 49.8756L52.1562 53.2719C52.3678 51.2023 52.738 49.1327 53.267 47.0631L49.4584 44.0383C48.7708 46.0017 48.2947 47.9652 47.8715 49.8756ZM24.7028 24.6688L20.9471 21.3786C19.5718 22.7053 18.2494 24.032 17.0327 25.3587L21.1058 28.8611C22.2166 27.4283 23.4332 25.9955 24.7028 24.6688ZM8.72796 48.3898L2.64484 46.161C1.6398 48.4428 0.528967 51.0962 0 52.529L6.08312 54.7578C6.77078 52.9535 7.88161 50.3532 8.72796 48.3898ZM47.0781 63.3547C47.1839 66.1672 47.4484 68.4491 47.7128 70.0411L54.0604 72.323C53.5844 70.2534 53.1083 67.9184 52.7909 65.4243L47.0781 63.3547Z" fill="#CC0000"/>
</g>
<defs>
<clipPath id="clip0_8_79">
<rect width="210" height="74" fill="white"/>
</clipPath>
</defs>
</svg>
